<svg width="24" height="25" viewBox="0 0 24 25" fill="none" xmlns="http://www.w3.org/2000/svg">
<g id="Navigation / Map_Pin">
<path id="Vector" d="M12 11.9915C13.1046 11.9915 14 11.096 14 9.99146C14 8.88689 13.1046 7.99146 12 7.99146C10.8954 7.99146 10 8.88689 10 9.99146C10 11.096 10.8954 11.9915 12 11.9915Z" stroke="#1FAB58" stroke-width="2" stroke-linecap="round" stroke-linejoin="round"/>
<path id="Vector_2" d="M12 21.9915C12 21.9915 19 17.1453 19 10.9145C19 9.07842 18.2625 7.31751 16.9497 6.01918C15.637 4.72085 13.8565 3.99146 12 3.99146C10.1435 3.99146 8.36301 4.72085 7.05025 6.01918C5.7375 7.31751 5 9.07842 5 10.9145C5 17.1453 12 21.9915 12 21.9915Z" stroke="#1FAB58" stroke-width="2" stroke-linecap="round" stroke-linejoin="round"/>
</g>
</svg>
