<svg width="20" height="21" viewBox="0 0 20 21" fill="none" xmlns="http://www.w3.org/2000/svg">
<path id="Vector" d="M5.64593 1.99146H2.89474C1.8483 1.99146 1 2.83976 1 3.88619C1 12.7809 8.21057 19.9915 17.1053 19.9915C18.1517 19.9915 19 19.1432 19 18.0967V15.3455C19 14.5277 18.5021 13.7923 17.7428 13.4886L15.1071 12.4343C14.4251 12.1615 13.6483 12.2845 13.084 12.7548L12.4031 13.3222C11.6084 13.9844 10.44 13.9314 9.70852 13.2L7.79148 11.2829C7.06004 10.5515 7.00704 9.38301 7.66925 8.58835L8.23664 7.90749C8.70693 7.34314 8.82998 6.5664 8.55715 5.88433L7.50289 3.24867C7.19916 2.48936 6.46374 1.99146 5.64593 1.99146Z" stroke="#1FAB58" stroke-width="2" stroke-linecap="round" stroke-linejoin="round"/>
</svg>
