<?xml version="1.0" encoding="utf-8"?><svg viewBox="0 0 40 41" xmlns="http://www.w3.org/2000/svg" xmlns:xlink="http://www.w3.org/1999/xlink"><style>:root>svg{display:none}:root>svg:target{display:block}</style><svg viewBox="0 0 40 40" id="arrow_down" xmlns="http://www.w3.org/2000/svg"><path d="M10 17l10 10 10-10"/></svg><svg viewBox="0 0 40 41" id="arrow_left" xmlns="http://www.w3.org/2000/svg"><circle cx="20" cy="20" r="20" transform="matrix(-1 0 0 1 40 .991)"/><path d="M23 10.992l-10 10 10 10"/></svg><svg viewBox="0 0 40 41" id="arrow_right" xmlns="http://www.w3.org/2000/svg"><circle cx="20" cy="20.991" r="20"/><path d="M17 10.992l10 10-10 10"/></svg><svg viewBox="0 0 24 25" id="check" xmlns="http://www.w3.org/2000/svg"><path d="M6 12.5l4.243 4.243 8.485-8.486"/></svg><svg viewBox="0 0 40 41" id="chevron_down" xmlns="http://www.w3.org/2000/svg"><path d="M10 17.991l10 10 10-10"/></svg><svg viewBox="0 0 24 24" id="chevron_right" xmlns="http://www.w3.org/2000/svg"><path d="M9 5l7 7-7 7"/></svg><svg viewBox="0 0 40 41" id="chevron_up" xmlns="http://www.w3.org/2000/svg"><path d="M10 27.991l10-10 10 10"/></svg><svg viewBox="0 0 24 25" id="close" xmlns="http://www.w3.org/2000/svg"><path d="M18 18.991l-12-12m12 0l-12 12" stroke-width="2" stroke-linecap="round" stroke-linejoin="round"/></svg><svg viewBox="0 0 24 25" id="mail" xmlns="http://www.w3.org/2000/svg"><g stroke-width="2" stroke-linecap="round" stroke-linejoin="round"><path d="M20 5.991H4a1 1 0 00-1 1v12a1 1 0 001 1h16a1 1 0 001-1v-12a1 1 0 00-1-1z"/><path d="M3 6.991l9.257 7 8.743-7"/></g></svg><svg viewBox="0 0 24 25" id="map_pin" xmlns="http://www.w3.org/2000/svg"><g stroke-width="2" stroke-linecap="round" stroke-linejoin="round"><path d="M12 11.992a2 2 0 100-4 2 2 0 000 4z"/><path d="M12 21.991s7-4.846 7-11.076a6.885 6.885 0 00-2.05-4.896A7.04 7.04 0 0012 3.991 7.04 7.04 0 007.05 6.02 6.885 6.885 0 005 10.915c0 6.23 7 11.076 7 11.076z"/></g></svg><svg viewBox="0 0 24 25" id="plus" xmlns="http://www.w3.org/2000/svg"><path d="M6 12.992h12m-6 5.999v-12" stroke-width="2" stroke-linecap="round" stroke-linejoin="round"/></svg><svg viewBox="0 0 40 40" id="swiper_next" xmlns="http://www.w3.org/2000/svg"><circle cx="20" cy="20" r="20"/><path d="M17 10l10 10-10 10"/></svg><svg viewBox="0 0 20 21" id="tel" xmlns="http://www.w3.org/2000/svg"><path d="M5.646 1.991H2.895A1.895 1.895 0 001 3.886c0 8.895 7.21 16.105 16.105 16.105A1.895 1.895 0 0019 18.098v-2.752a2 2 0 00-1.257-1.856l-2.636-1.055a2 2 0 00-2.023.32l-.68.568a2 2 0 01-2.695-.122L7.79 11.283a2 2 0 01-.122-2.695l.568-.68a2 2 0 00.32-2.024L7.503 3.25a2 2 0 00-1.857-1.26z"/></svg></svg>