<svg width="20" height="20" viewBox="0 0 20 20" fill="none" xmlns="http://www.w3.org/2000/svg">
<path id="Vector" d="M5.64593 1H2.89474C1.8483 1 1 1.8483 1 2.89474C1 11.7894 8.21057 19 17.1053 19C18.1517 19 19 18.1517 19 17.1053V14.3541C19 13.5363 18.5021 12.8008 17.7428 12.4971L15.1071 11.4428C14.4251 11.17 13.6483 11.2931 13.084 11.7634L12.4031 12.3307C11.6084 12.993 10.44 12.94 9.70852 12.2085L7.79148 10.2915C7.06004 9.56005 7.00704 8.39155 7.66925 7.5969L8.23664 6.91603C8.70693 6.35169 8.82998 5.57495 8.55715 4.89288L7.50289 2.25722C7.19916 1.4979 6.46374 1 5.64593 1Z" stroke="#1FAB58" stroke-width="2" stroke-linecap="round" stroke-linejoin="round"/>
</svg>
